<svg width="30" height="31" viewBox="0 0 30 31" fill="none" xmlns="http://www.w3.org/2000/svg">
<path d="M-9.01547e-07 9.90381L-4.09794e-07 21.1434C-1.83506e-07 26.3155 4.19812 30.5098 9.375 30.5098L20.625 30.5098C25.8019 30.5098 30 26.3155 30 21.1434L30 9.90381C30 4.73171 25.8019 0.537467 20.625 0.537467L9.375 0.537468C4.19812 0.537468 -1.12784e-06 4.73172 -9.01547e-07 9.90381ZM20.625 3.34737C24.2437 3.34737 27.1875 6.2884 27.1875 9.90381L27.1875 21.1434C27.1875 24.7588 24.2437 27.6999 20.625 27.6999L9.375 27.6999C5.75625 27.6999 2.8125 24.7588 2.8125 21.1434L2.8125 9.90381C2.8125 6.2884 5.75625 3.34737 9.375 3.34737L20.625 3.34737Z" fill="black"/>
<path d="M7.5 15.5235C7.5 19.6616 10.8581 23.0166 15 23.0166C19.1419 23.0166 22.5 19.6616 22.5 15.5235C22.5 11.3855 19.1419 8.03045 15 8.03045C10.8581 8.03045 7.5 11.3855 7.5 15.5235ZM19.6875 15.5235C19.6875 18.1049 17.5837 20.2067 15 20.2067C12.4144 20.2067 10.3125 18.1049 10.3125 15.5235C10.3125 12.9422 12.4144 10.8404 15 10.8404C17.5837 10.8404 19.6875 12.9422 19.6875 15.5235Z" fill="black"/>
<path d="M7.93685 7.46835C7.93685 6.91692 7.48942 6.46989 6.93748 6.46989C6.38554 6.46989 5.93811 6.91692 5.93811 7.46835C5.93811 8.01977 6.38554 8.4668 6.93748 8.4668C7.48942 8.4668 7.93685 8.01977 7.93685 7.46835Z" fill="black"/>
</svg>
