<svg width="30" height="31" viewBox="0 0 30 31" fill="none" xmlns="http://www.w3.org/2000/svg">
<path d="M15 30.5099C23.2863 30.5099 30 23.8023 30 15.5237C30 7.24515 23.2863 0.537598 15 0.537598C6.71375 0.537598 0 7.24515 0 15.5237C0 23.8023 6.71375 30.5099 15 30.5099ZM6.86375 15.199L21.3263 9.62795C21.9975 9.38567 22.5837 9.79154 22.3662 10.8056L22.3675 10.8044L19.905 22.3949C19.7225 23.2166 19.2337 23.4165 18.55 23.0293L14.8 20.2681L12.9912 22.009C12.7912 22.2088 12.6225 22.3774 12.235 22.3774L12.5013 18.5647L19.4513 12.2917C19.7537 12.0257 19.3837 11.8759 18.985 12.1406L10.3963 17.5431L6.69375 16.3892C5.89 16.1344 5.8725 15.5862 6.86375 15.199Z" fill="black"/>
</svg>
