<svg width="30" height="31" viewBox="0 0 30 31" fill="none" xmlns="http://www.w3.org/2000/svg">
<path d="M25.6055 0.537598L4.39453 0.537598C1.97159 0.537598 0 2.50737 0 4.92807L0 26.1194C0 28.5401 1.97159 30.5099 4.39453 30.5099L13.2422 30.5099L13.2422 19.9142L9.72656 19.9142L9.72656 14.6457H13.2422V11.0747C13.2422 8.16948 15.6077 5.80617 18.5156 5.80617L23.8477 5.80617V11.0747H18.5156L18.5156 14.6457H23.8477L22.9687 19.9142H18.5156V30.5099H25.6055C28.0284 30.5099 30 28.5401 30 26.1194L30 4.92807C30 2.50737 28.0284 0.537598 25.6055 0.537598Z" fill="black"/>
</svg>
