<svg width="25" height="24" viewBox="0 0 25 24" fill="none" xmlns="http://www.w3.org/2000/svg">
<path d="M0.749999 11.5865C0.75 17.9229 6.2021 23.0552 12.9263 23.0552C18.3072 23.0552 22.8702 19.7694 24.479 15.2135C24.5936 14.64 24.2167 14.4298 23.8935 14.4298C23.6044 14.4298 22.8382 14.4393 21.8232 14.4441C22.5574 17.6343 20.1896 18.3071 20.1896 18.3071C18.7843 18.829 18.4084 19.583 18.4084 19.583C17.6536 20.6219 17.6691 19.5027 17.6691 19.5027C17.7537 18.3511 18.9237 17.7461 18.9237 17.7461C20.7854 16.7235 20.2474 15.0615 19.9366 14.4059C19.1488 14.3027 18.6128 14.0073 18.3082 13.6795C18.0036 16.2265 16.9566 18.9035 12.2913 18.9035C10.9624 18.9035 9.87606 18.4591 9.02417 17.7232C8.71646 17.8522 7.47838 18.2393 5.80145 17.6228C5.80145 17.6228 5.47515 16.6623 7.04985 14.4689C6.77932 13.5515 6.64508 12.5766 6.63888 11.6018C6.64508 10.6269 6.77931 9.6521 7.04985 8.7346C5.47515 6.55555 5.80145 5.59505 5.80145 5.59505C7.47838 4.9786 8.71646 5.36567 9.02417 5.48036C9.87606 4.74923 10.9624 4.30482 12.2913 4.30482C16.969 4.30482 17.9984 6.98563 18.2979 9.53741C18.6634 9.136 19.41 8.76327 20.551 8.76327C22.1805 8.76327 23.4898 8.77761 23.8853 8.77761C24.2043 8.77761 24.5854 8.57691 24.4635 7.98914C22.8651 3.4007 18.2989 0.117789 12.9263 0.11779C6.20209 0.11779 0.749999 5.2529 0.749999 11.5865Z" fill="white"/>
</svg>
